<svg id="圖層_1" data-name="圖層 1" xmlns="http://www.w3.org/2000/svg" viewBox="0 0 368.89 98.37"><defs><style>.cls-1{fill:#231815;}.cls-2{fill:#e50012;fill-rule:evenodd;}</style></defs><path class="cls-1" d="M213.28,55.68a9.77,9.77,0,0,1-2.51,7.12,10.88,10.88,0,0,1-13.94,0,9.6,9.6,0,0,1-2.51-7.09V21.78H177.18v33.1a33.12,33.12,0,0,0,1.61,9.37,17.46,17.46,0,0,0,3.65,6.4,20.63,20.63,0,0,0,5.89,4.81,23.38,23.38,0,0,0,8,2.24,74.15,74.15,0,0,0,8.81.55,35.54,35.54,0,0,0,12-1.82,19.55,19.55,0,0,0,6.88-4.61,20.43,20.43,0,0,0,4.82-7.64,28.6,28.6,0,0,0,1.51-9.3V21.78h-17.1Z" transform="translate(-1.78 -0.81)"/><polygon class="cls-1" points="168.83 20.96 146.04 20.96 128.04 41.95 128.04 20.96 110.9 20.96 110.9 76.47 128.04 76.47 128.04 62.91 136.92 53.62 148.62 76.47 169.72 76.47 148.62 41.89 168.83 20.96"/><rect class="cls-1" x="351.71" y="20.96" width="17.17" height="55.51"/><polygon class="cls-1" points="288.22 34.66 288.22 20.96 286.67 20.96 236.07 20.96 236.07 34.66 253.56 34.66 253.56 76.47 270.7 76.47 270.7 34.66 286.67 34.66 288.22 34.66"/><path class="cls-1" d="M316.94,21.78h-9.19L288.44,73.16l-1.54,4.13h17.51l2.69-9.16h19.55l2.72,9.16h18L326.44,21.78Zm0,34.34h-6.13l6.1-20,0,.07L323,56.12Z" transform="translate(-1.78 -0.81)"/><path class="cls-2" d="M83,32.8a16.46,16.46,0,0,0-2.1.14A34.71,34.71,0,0,0,68.06,20.11a17.53,17.53,0,0,0,.13-2.06,17.22,17.22,0,1,0-34.43,0,17.54,17.54,0,0,0,.11,2.06,32.68,32.68,0,0,0-5.19,3.68,34.09,34.09,0,0,0-7.61,9.15A15.83,15.83,0,0,0,19,32.8a17.22,17.22,0,0,0,0,34.43,17.82,17.82,0,0,0,2.09-.11,35,35,0,0,0,7.61,9.15,34.55,34.55,0,0,0,5.19,3.65A17.59,17.59,0,0,0,33.76,82a17.22,17.22,0,0,0,34.43,0,17.5,17.5,0,0,0-.13-2.09,36.34,36.34,0,0,0,5.21-3.65,35.32,35.32,0,0,0,7.58-9.15,18.47,18.47,0,0,0,2.1.11A17.22,17.22,0,1,0,83,32.8ZM19,63.55a13.52,13.52,0,1,1,9.7-4.1A13.52,13.52,0,0,1,19,63.55Zm54.29,7.64a31.37,31.37,0,0,1-6.11,5,17.23,17.23,0,0,0-32.4,0,30.61,30.61,0,0,1-6.08-5,29.87,29.87,0,0,1-3.84-5,17.67,17.67,0,0,0,3.84-2,17.22,17.22,0,0,0,0-28.47,16.34,16.34,0,0,0-3.84-2,30.88,30.88,0,0,1,9.92-10,17.22,17.22,0,0,0,32.4,0,31.79,31.79,0,0,1,6.11,5,31.42,31.42,0,0,1,3.82,5,15.65,15.65,0,0,0-3.82,2,17.18,17.18,0,0,0,0,28.47,16.87,16.87,0,0,0,3.82,2A30.3,30.3,0,0,1,73.27,71.19ZM83,63.55a13.53,13.53,0,0,1,0-27,13.53,13.53,0,0,1,0,27.05Z" transform="translate(-1.78 -0.81)"/></svg>