<svg id="圖層_1" data-name="圖層 1" xmlns="http://www.w3.org/2000/svg" viewBox="0 0 285.84 77"><defs><style>.cls-1{fill:#e7211a;}.cls-2{fill:none;}.cls-3{fill:#fff;}</style></defs><path class="cls-1" d="M51.94,58.58a13.48,13.48,0,0,1,.71,2.69A26.66,26.66,0,0,0,62,52a14.35,14.35,0,0,1-2.71-.69A24,24,0,0,1,51.94,58.58Z" transform="translate(-0.34 -0.16)"/><path class="cls-1" d="M18.86,51.25a14.47,14.47,0,0,1-2.7.7,26.72,26.72,0,0,0,9.39,9.36,13.46,13.46,0,0,1,.7-2.69A24.17,24.17,0,0,1,18.86,51.25Z" transform="translate(-0.34 -0.16)"/><path class="cls-1" d="M26.08,18.2a13.83,13.83,0,0,1-.61-2.76,26.75,26.75,0,0,0-9.35,9.38,13.38,13.38,0,0,1,2.7.7A24.37,24.37,0,0,1,26.08,18.2Z" transform="translate(-0.34 -0.16)"/><path class="cls-1" d="M59.31,25.5a13.54,13.54,0,0,1,2.7-.69,26.74,26.74,0,0,0-9.28-9.33,13.33,13.33,0,0,1-.62,2.76A24,24,0,0,1,59.31,25.5Z" transform="translate(-0.34 -0.16)"/><path class="cls-1" d="M39.1.16A13.72,13.72,0,0,0,25.38,13.88c0,.53,0,1,.09,1.56a13.72,13.72,0,0,0,26.64,2.8,13.33,13.33,0,0,0,.62-2.76,14.17,14.17,0,0,0,.09-1.6A13.72,13.72,0,0,0,39.1.16Z" transform="translate(-0.34 -0.16)"/><path class="cls-1" d="M52.65,61.27a13.48,13.48,0,0,0-.71-2.69,13.72,13.72,0,0,0-25.69,0,14.07,14.07,0,0,0-.87,4.81,13.72,13.72,0,1,0,27.44,0A12.93,12.93,0,0,0,52.65,61.27Z" transform="translate(-0.34 -0.16)"/><path class="cls-2" d="M17.33,28.25a10.55,10.55,0,0,0-2.71-.49c-.18,0-.37,0-.56,0a10.66,10.66,0,0,0,0,21.32c.2,0,.4,0,.59,0a10.93,10.93,0,0,0,2.7-.5,10.65,10.65,0,0,0,0-20.27Z" transform="translate(-0.34 -0.16)"/><path class="cls-1" d="M18.82,25.52a13.38,13.38,0,0,0-2.7-.7,14,14,0,0,0-2.06-.15,13.72,13.72,0,0,0,0,27.44,13.23,13.23,0,0,0,2.1-.16,14.47,14.47,0,0,0,2.7-.7,13.73,13.73,0,0,0,0-25.73Zm-1.47,23a10.93,10.93,0,0,1-2.7.5c-.19,0-.39,0-.59,0a10.66,10.66,0,0,1,0-21.32c.19,0,.38,0,.56,0a10.55,10.55,0,0,1,2.71.49,10.65,10.65,0,0,1,0,20.27Z" transform="translate(-0.34 -0.16)"/><path class="cls-2" d="M64,27.73l-.49,0a10.27,10.27,0,0,0-2.72.47,10.65,10.65,0,0,0,0,20.31,10.55,10.55,0,0,0,2.71.48l.52,0a10.66,10.66,0,0,0,0-21.32Z" transform="translate(-0.34 -0.16)"/><path class="cls-1" d="M64,24.67a14.71,14.71,0,0,0-2,.14,13.54,13.54,0,0,0-2.7.69,13.72,13.72,0,0,0,0,25.77A14.35,14.35,0,0,0,62,52a13.57,13.57,0,0,0,2,.15,13.72,13.72,0,1,0,0-27.44Zm0,24.38-.52,0a10.55,10.55,0,0,1-2.71-.48,10.65,10.65,0,0,1,0-20.31,10.27,10.27,0,0,1,2.72-.47l.49,0a10.66,10.66,0,0,1,0,21.32Z" transform="translate(-0.34 -0.16)"/><path class="cls-3" d="M100.58,18.35h12.33V33.44l12.93-15.09h16.4L127.67,33.42,142.9,58.28H127.71l-8.42-16.42-6.38,6.68v9.74H100.58Z" transform="translate(-0.34 -0.16)"/><path class="cls-3" d="M173,18.35h12.31V42.14a19.92,19.92,0,0,1-1.1,6.68,14.36,14.36,0,0,1-3.46,5.5,13.73,13.73,0,0,1-4.94,3.3A24.88,24.88,0,0,1,167.14,59a54.64,54.64,0,0,1-6.36-.41A16.5,16.5,0,0,1,155,56.93a14.35,14.35,0,0,1-4.24-3.44,12.6,12.6,0,0,1-2.62-4.6A23.61,23.61,0,0,1,147,42.14V18.35h12.31V42.71a7,7,0,0,0,1.81,5.1,7.81,7.81,0,0,0,10,0A6.9,6.9,0,0,0,173,42.71Z" transform="translate(-0.34 -0.16)"/><path class="cls-3" d="M190.64,18.35h37.5v9.86H215.56V58.28H203.22V28.21H190.64Z" transform="translate(-0.34 -0.16)"/><path class="cls-3" d="M254.48,51.69h-14l-1.95,6.59h-12.6l15-39.93H254.4l15,39.93H256.48Zm-2.56-8.64-4.4-14.35-4.36,14.35Z" transform="translate(-0.34 -0.16)"/><path class="cls-3" d="M273.81,18.35h12.36V58.28H273.81Z" transform="translate(-0.34 -0.16)"/></svg>